<svg id="Capa_1" data-name="Capa 1" xmlns="http://www.w3.org/2000/svg" viewBox="0 0 94.1 88.48"><defs><style>.cls-1{fill:#fff;}</style></defs><title>CAT</title><path class="cls-1" d="M14,87l-0.16-.49A38.75,38.75,0,0,0,11.08,72L9.19,67.62,7.4,65.33A44.94,44.94,0,0,1,0,44.74V44.67c0-3.51,0-9.41,1-13.53C1.67,28,2.71,22.24,4.72,17.84c0.16-.35.33-0.7,0.39-0.81l0.25-.47A9,9,0,0,1,9.83,12.1l0.67,0.08C16.45,16.1,15.24,23,22.62,22.84,27.93,22.69,31,12.57,34.29,12H34.5c4.44,0.48,7.69,10.19,9.89,11.19,2.87,1.31,3.15,1.48,11.67-2.49l0,0,3.9-1.1,0.1,0,3-.67c1.06-.16,2.16-0.29,3.25-0.48,2.14-.37,3.35-0.89,4.12-1.75,2.85-3.2,1.77-5.46-.1-6.76a7,7,0,0,0-9.15,1.27A4.37,4.37,0,1,1,54.89,5.1,15.73,15.73,0,0,1,75.33,2.73c6,4.17,8.11,12.45,1.63,19.73l-1.23,1.12L77,24.65a22.52,22.52,0,0,1,4.61,6A27,27,0,0,1,84.51,42l-0.06,3.63,1.35,1c4.06,3.29,8.5,9.24,8.3,12.74-0.11,2-2.95,2.72-4.36,2.38-1.66-.4-4.57-2.89-7.6-3.2H81.21l-1.51,3A28.69,28.69,0,0,1,72.35,70l-3.14,2.3,0,0,0,0,0,0,0,1.36c-0.49,4.93-4.81,13.06-8.58,14.55-1.32.52-3.46,0.16-3.8-1.74-0.22-1.24.3-3.58,0.1-5.93l-0.35-1.65-4.88,1.27a47.94,47.94,0,0,1-6.1.63,65.12,65.12,0,0,1-10.79-.3l-1.87-.3H32.79q-0.92-.13-1.82-0.31l1.62,0.26L32,80.07,31.13,83.5a11.8,11.8,0,0,1-1.83,3.3c-1.48,1.78-3.63,2.52-5.46.25l-0.17-.5a25.52,25.52,0,0,0-.29-4.82l-1-4.29,0,1.06a18,18,0,0,1-2.2,7.21C18.77,88.11,16.25,89.87,14,87Zm46-.15c3.18-1.26,7.33-9.12,7.66-13.43a42.7,42.7,0,0,1-9.67,5c0.83,3,.09,6.93.24,7.78A1.24,1.24,0,0,0,60.06,86.84Zm-31.92-1a13.39,13.39,0,0,0,2.42-6,33.83,33.83,0,0,1-6.43-1.94,34.53,34.53,0,0,1,1,6.2l0,2.16,0.59,0.53C26.51,87.2,27.29,86.87,28.14,85.84Zm-9.23-.91a17,17,0,0,0,2-9L22,75.21l1.25,0.6,0,0,0.05,0.06a32,32,0,0,0,8.48,2.64,57.12,57.12,0,0,0,13.66.78,37.92,37.92,0,0,0,11.1-1.95,40.48,40.48,0,0,0,11.35-6v0h0q1.66-1.15,3.46-2.53a28.64,28.64,0,0,0,8.61-11.31L80.65,57c3.94-.51,8.74,3,9.44,3.22,1.19,0.28,2.48-.58,2.51-1,0.18-3.13-5-9.9-9.3-12.62L83,45.93a27.22,27.22,0,0,0-2.64-14.55,20.87,20.87,0,0,0-6.16-7.16V23a10.88,10.88,0,0,0,1.69-1.54C81.69,14.89,79.75,7.64,74.47,4A14.23,14.23,0,0,0,56,6.14a2.87,2.87,0,1,0,4.13,4A8.47,8.47,0,0,1,71.19,8.66c2.57,1.8,3.83,5.09.36,9-1.12,1.26-2.75,1.85-5,2.24A41.79,41.79,0,0,0,60.48,21l-0.11,0-3.72,1-2.8,1.29C48,26,46.89,26,43.77,24.54S38.59,16,35.65,14l-1.18-.47L33.76,14c-2.09,2.21-5.87,10.17-11.1,10.32-7.26.21-8-5.8-11.35-9.49L10,13.7,9.33,14a9.24,9.24,0,0,0-2.65,3.24l-0.24.45c0,0.07-.2.39-0.36,0.76-1.92,4.18-2.92,9.76-3.63,13a50.5,50.5,0,0,0-.93,10.18v3l0.37,2.79C3,54.17,6,61.74,10.41,66.74l0.11,0.17A51.2,51.2,0,0,1,15.1,81.6l0.24,4.59L16,86.82C16.92,87.24,17.87,86.68,18.91,84.94ZM7,45.22a0.75,0.75,0,0,1,.4-1l5.76-2.39a0.75,0.75,0,1,1,.58,1.38L8,45.62A0.75,0.75,0,0,1,7,45.22Zm28.89,0.4-5.75-2.39a0.75,0.75,0,1,1,.58-1.38l5.75,2.39A0.75,0.75,0,1,1,35.91,45.62ZM25.38,43.31a12.8,12.8,0,0,0-3.79-1.5l-0.11,0A6.69,6.69,0,0,0,18.54,43a0.75,0.75,0,0,1-.86-1.23,8.33,8.33,0,0,1,3.1-1.36v-2.6a5.49,5.49,0,0,1-2.64-.92A0.75,0.75,0,0,1,19,35.69a3.27,3.27,0,0,0,1,.47,5.29,5.29,0,0,0,1.4.19,4.16,4.16,0,0,0,2.61-.79A0.75,0.75,0,1,1,25,36.73a5.3,5.3,0,0,1-2.74,1.08v2.63l0.1,0A13.67,13.67,0,0,1,26.19,42,0.75,0.75,0,0,1,25.38,43.31ZM5.7,42a0.75,0.75,0,0,1,.6-0.87l6.49-1.19a0.75,0.75,0,1,1,.27,1.47L6.57,42.61A0.75,0.75,0,0,1,5.7,42Zm31.66,0.6-6.49-1.19a0.75,0.75,0,1,1,.27-1.47l6.49,1.19A0.75,0.75,0,0,1,37.35,42.61ZM5.14,33.54a5.59,5.59,0,0,1,.2-1.46,0.75,0.75,0,0,1,.72-0.55h9.19a0.75,0.75,0,0,1,.72.55A5.51,5.51,0,1,1,5.14,33.54Zm22.31,0a5.56,5.56,0,0,1,.2-1.47,0.75,0.75,0,0,1,.72-0.55h9.19a0.75,0.75,0,0,1,.72.55A5.51,5.51,0,1,1,27.45,33.54Zm-12.78,0c0-.09,0-0.18,0-0.27l0-.24h-3.7a1.79,1.79,0,0,1-3.57,0H6.68l0,0.24c0,0.09,0,.18,0,0.27A4,4,0,0,0,14.67,33.54Zm22.31,0c0-.09,0-0.18,0-0.27l0-.24H33.43a1.79,1.79,0,0,1-3.58,0H29l0,0.24c0,0.09,0,.18,0,0.27A4,4,0,0,0,37,33.54ZM11.67,29L10.92,25.6a0.75,0.75,0,1,1,1.47-.32l0.75,3.43A0.75,0.75,0,0,1,11.67,29Zm18.16-.32,0.75-3.43A0.75,0.75,0,1,1,32,25.6L31.3,29A0.75,0.75,0,0,1,29.83,28.71ZM9.67,29.1l-1-3.28a0.75,0.75,0,0,1,1.43-.45l1,3.28A0.75,0.75,0,1,1,9.67,29.1Zm22.19-.46,1-3.28a0.75,0.75,0,1,1,1.43.45l-1,3.28A0.75,0.75,0,0,1,31.86,28.64Z"/></svg>